<mxfile host="app.diagrams.net" modified="2021-03-17T06:00:08.675Z" agent="5.0 (Windows NT 10.0; Win64; x64) AppleWebKit/537.36 (KHTML, like Gecko) Chrome/89.0.4389.82 Safari/537.36" etag="fDRceIc1v7UGJLqI-AEH" version="14.4.8" type="github">
  <diagram id="R2lEEEUBdFMjLlhIrx00" name="Page-1">
    <mxGraphModel dx="620" dy="335" grid="1" gridSize="10" guides="1" tooltips="1" connect="1" arrows="1" fold="1" page="1" pageScale="1" pageWidth="850" pageHeight="1100" background="#283618" math="0" shadow="0" extFonts="Permanent Marker^https://fonts.googleapis.com/css?family=Permanent+Marker">
      <root>
        <mxCell id="0" />
        <mxCell id="1" parent="0" />
        <mxCell id="C-vyLk0tnHw3VtMMgP7b-1" value="" style="edgeStyle=entityRelationEdgeStyle;endArrow=ERzeroToMany;startArrow=ERone;endFill=1;startFill=0;labelBackgroundColor=#283618;strokeColor=#DDA15E;fontColor=#FEFAE0;" parent="1" source="C-vyLk0tnHw3VtMMgP7b-24" target="C-vyLk0tnHw3VtMMgP7b-6" edge="1">
          <mxGeometry width="100" height="100" relative="1" as="geometry">
            <mxPoint x="340" y="720" as="sourcePoint" />
            <mxPoint x="440" y="620" as="targetPoint" />
          </mxGeometry>
        </mxCell>
        <mxCell id="C-vyLk0tnHw3VtMMgP7b-12" value="" style="edgeStyle=entityRelationEdgeStyle;endArrow=ERzeroToMany;startArrow=ERone;endFill=1;startFill=0;entryX=0;entryY=0.5;entryDx=0;entryDy=0;labelBackgroundColor=#283618;strokeColor=#DDA15E;fontColor=#FEFAE0;" parent="1" source="C-vyLk0tnHw3VtMMgP7b-3" target="EZFJRwTgaztwTsdIO9kQ-43" edge="1">
          <mxGeometry width="100" height="100" relative="1" as="geometry">
            <mxPoint x="400" y="180" as="sourcePoint" />
            <mxPoint x="540" y="125" as="targetPoint" />
          </mxGeometry>
        </mxCell>
        <mxCell id="C-vyLk0tnHw3VtMMgP7b-2" value="Product" style="shape=table;startSize=30;container=1;collapsible=1;childLayout=tableLayout;fixedRows=1;rowLines=0;fontStyle=1;align=center;resizeLast=1;fillColor=#BC6C25;strokeColor=#DDA15E;fontColor=#FEFAE0;" parent="1" vertex="1">
          <mxGeometry x="310" y="60" width="160" height="120" as="geometry" />
        </mxCell>
        <mxCell id="C-vyLk0tnHw3VtMMgP7b-3" value="" style="shape=partialRectangle;collapsible=0;dropTarget=0;pointerEvents=0;fillColor=none;points=[[0,0.5],[1,0.5]];portConstraint=eastwest;top=0;left=0;right=0;bottom=1;strokeColor=#DDA15E;fontColor=#FEFAE0;" parent="C-vyLk0tnHw3VtMMgP7b-2" vertex="1">
          <mxGeometry y="30" width="160" height="30" as="geometry" />
        </mxCell>
        <mxCell id="C-vyLk0tnHw3VtMMgP7b-4" value="PK" style="shape=partialRectangle;overflow=hidden;connectable=0;fillColor=none;top=0;left=0;bottom=0;right=0;fontStyle=1;strokeColor=#DDA15E;fontColor=#FEFAE0;" parent="C-vyLk0tnHw3VtMMgP7b-3" vertex="1">
          <mxGeometry width="30" height="30" as="geometry" />
        </mxCell>
        <mxCell id="C-vyLk0tnHw3VtMMgP7b-5" value="id_product" style="shape=partialRectangle;overflow=hidden;connectable=0;fillColor=none;top=0;left=0;bottom=0;right=0;align=left;spacingLeft=6;fontStyle=5;strokeColor=#DDA15E;fontColor=#FEFAE0;" parent="C-vyLk0tnHw3VtMMgP7b-3" vertex="1">
          <mxGeometry x="30" width="130" height="30" as="geometry" />
        </mxCell>
        <mxCell id="C-vyLk0tnHw3VtMMgP7b-6" value="" style="shape=partialRectangle;collapsible=0;dropTarget=0;pointerEvents=0;fillColor=none;points=[[0,0.5],[1,0.5]];portConstraint=eastwest;top=0;left=0;right=0;bottom=0;strokeColor=#DDA15E;fontColor=#FEFAE0;" parent="C-vyLk0tnHw3VtMMgP7b-2" vertex="1">
          <mxGeometry y="60" width="160" height="30" as="geometry" />
        </mxCell>
        <mxCell id="C-vyLk0tnHw3VtMMgP7b-7" value="FK" style="shape=partialRectangle;overflow=hidden;connectable=0;fillColor=none;top=0;left=0;bottom=0;right=0;strokeColor=#DDA15E;fontColor=#FEFAE0;" parent="C-vyLk0tnHw3VtMMgP7b-6" vertex="1">
          <mxGeometry width="30" height="30" as="geometry" />
        </mxCell>
        <mxCell id="C-vyLk0tnHw3VtMMgP7b-8" value="id_user" style="shape=partialRectangle;overflow=hidden;connectable=0;fillColor=none;top=0;left=0;bottom=0;right=0;align=left;spacingLeft=6;strokeColor=#DDA15E;fontColor=#FEFAE0;" parent="C-vyLk0tnHw3VtMMgP7b-6" vertex="1">
          <mxGeometry x="30" width="130" height="30" as="geometry" />
        </mxCell>
        <mxCell id="C-vyLk0tnHw3VtMMgP7b-9" value="" style="shape=partialRectangle;collapsible=0;dropTarget=0;pointerEvents=0;fillColor=none;points=[[0,0.5],[1,0.5]];portConstraint=eastwest;top=0;left=0;right=0;bottom=0;strokeColor=#DDA15E;fontColor=#FEFAE0;" parent="C-vyLk0tnHw3VtMMgP7b-2" vertex="1">
          <mxGeometry y="90" width="160" height="30" as="geometry" />
        </mxCell>
        <mxCell id="C-vyLk0tnHw3VtMMgP7b-10" value="" style="shape=partialRectangle;overflow=hidden;connectable=0;fillColor=none;top=0;left=0;bottom=0;right=0;strokeColor=#DDA15E;fontColor=#FEFAE0;" parent="C-vyLk0tnHw3VtMMgP7b-9" vertex="1">
          <mxGeometry width="30" height="30" as="geometry" />
        </mxCell>
        <mxCell id="C-vyLk0tnHw3VtMMgP7b-11" value="product_name" style="shape=partialRectangle;overflow=hidden;connectable=0;fillColor=none;top=0;left=0;bottom=0;right=0;align=left;spacingLeft=6;strokeColor=#DDA15E;fontColor=#FEFAE0;" parent="C-vyLk0tnHw3VtMMgP7b-9" vertex="1">
          <mxGeometry x="30" width="130" height="30" as="geometry" />
        </mxCell>
        <mxCell id="C-vyLk0tnHw3VtMMgP7b-23" value="User" style="shape=table;startSize=30;container=1;collapsible=1;childLayout=tableLayout;fixedRows=1;rowLines=0;fontStyle=1;align=center;resizeLast=1;fillColor=#BC6C25;strokeColor=#DDA15E;fontColor=#FEFAE0;" parent="1" vertex="1">
          <mxGeometry x="80" y="60" width="140" height="150" as="geometry" />
        </mxCell>
        <mxCell id="C-vyLk0tnHw3VtMMgP7b-24" value="" style="shape=partialRectangle;collapsible=0;dropTarget=0;pointerEvents=0;fillColor=none;points=[[0,0.5],[1,0.5]];portConstraint=eastwest;top=0;left=0;right=0;bottom=1;strokeColor=#DDA15E;fontColor=#FEFAE0;" parent="C-vyLk0tnHw3VtMMgP7b-23" vertex="1">
          <mxGeometry y="30" width="140" height="30" as="geometry" />
        </mxCell>
        <mxCell id="C-vyLk0tnHw3VtMMgP7b-25" value="PK" style="shape=partialRectangle;overflow=hidden;connectable=0;fillColor=none;top=0;left=0;bottom=0;right=0;fontStyle=1;strokeColor=#DDA15E;fontColor=#FEFAE0;" parent="C-vyLk0tnHw3VtMMgP7b-24" vertex="1">
          <mxGeometry width="30" height="30" as="geometry" />
        </mxCell>
        <mxCell id="C-vyLk0tnHw3VtMMgP7b-26" value="id_user" style="shape=partialRectangle;overflow=hidden;connectable=0;fillColor=none;top=0;left=0;bottom=0;right=0;align=left;spacingLeft=6;fontStyle=5;strokeColor=#DDA15E;fontColor=#FEFAE0;" parent="C-vyLk0tnHw3VtMMgP7b-24" vertex="1">
          <mxGeometry x="30" width="110" height="30" as="geometry" />
        </mxCell>
        <mxCell id="C-vyLk0tnHw3VtMMgP7b-27" value="" style="shape=partialRectangle;collapsible=0;dropTarget=0;pointerEvents=0;fillColor=none;points=[[0,0.5],[1,0.5]];portConstraint=eastwest;top=0;left=0;right=0;bottom=0;strokeColor=#DDA15E;fontColor=#FEFAE0;" parent="C-vyLk0tnHw3VtMMgP7b-23" vertex="1">
          <mxGeometry y="60" width="140" height="30" as="geometry" />
        </mxCell>
        <mxCell id="C-vyLk0tnHw3VtMMgP7b-28" value="" style="shape=partialRectangle;overflow=hidden;connectable=0;fillColor=none;top=0;left=0;bottom=0;right=0;strokeColor=#DDA15E;fontColor=#FEFAE0;" parent="C-vyLk0tnHw3VtMMgP7b-27" vertex="1">
          <mxGeometry width="30" height="30" as="geometry" />
        </mxCell>
        <mxCell id="C-vyLk0tnHw3VtMMgP7b-29" value="email" style="shape=partialRectangle;overflow=hidden;connectable=0;fillColor=none;top=0;left=0;bottom=0;right=0;align=left;spacingLeft=6;strokeColor=#DDA15E;fontColor=#FEFAE0;" parent="C-vyLk0tnHw3VtMMgP7b-27" vertex="1">
          <mxGeometry x="30" width="110" height="30" as="geometry" />
        </mxCell>
        <mxCell id="EZFJRwTgaztwTsdIO9kQ-46" value="" style="shape=partialRectangle;collapsible=0;dropTarget=0;pointerEvents=0;fillColor=none;top=0;left=0;bottom=0;right=0;points=[[0,0.5],[1,0.5]];portConstraint=eastwest;strokeColor=#DDA15E;fontColor=#FEFAE0;" parent="C-vyLk0tnHw3VtMMgP7b-23" vertex="1">
          <mxGeometry y="90" width="140" height="30" as="geometry" />
        </mxCell>
        <mxCell id="EZFJRwTgaztwTsdIO9kQ-47" value="" style="shape=partialRectangle;connectable=0;fillColor=none;top=0;left=0;bottom=0;right=0;editable=1;overflow=hidden;strokeColor=#DDA15E;fontColor=#FEFAE0;" parent="EZFJRwTgaztwTsdIO9kQ-46" vertex="1">
          <mxGeometry width="30" height="30" as="geometry" />
        </mxCell>
        <mxCell id="EZFJRwTgaztwTsdIO9kQ-48" value="password" style="shape=partialRectangle;connectable=0;fillColor=none;top=0;left=0;bottom=0;right=0;align=left;spacingLeft=6;overflow=hidden;strokeColor=#DDA15E;fontColor=#FEFAE0;" parent="EZFJRwTgaztwTsdIO9kQ-46" vertex="1">
          <mxGeometry x="30" width="110" height="30" as="geometry" />
        </mxCell>
        <mxCell id="EZFJRwTgaztwTsdIO9kQ-49" value="" style="shape=partialRectangle;collapsible=0;dropTarget=0;pointerEvents=0;fillColor=none;top=0;left=0;bottom=0;right=0;points=[[0,0.5],[1,0.5]];portConstraint=eastwest;strokeColor=#DDA15E;fontColor=#FEFAE0;" parent="C-vyLk0tnHw3VtMMgP7b-23" vertex="1">
          <mxGeometry y="120" width="140" height="30" as="geometry" />
        </mxCell>
        <mxCell id="EZFJRwTgaztwTsdIO9kQ-50" value="" style="shape=partialRectangle;connectable=0;fillColor=none;top=0;left=0;bottom=0;right=0;editable=1;overflow=hidden;strokeColor=#DDA15E;fontColor=#FEFAE0;" parent="EZFJRwTgaztwTsdIO9kQ-49" vertex="1">
          <mxGeometry width="30" height="30" as="geometry" />
        </mxCell>
        <mxCell id="EZFJRwTgaztwTsdIO9kQ-51" value="name" style="shape=partialRectangle;connectable=0;fillColor=none;top=0;left=0;bottom=0;right=0;align=left;spacingLeft=6;overflow=hidden;strokeColor=#DDA15E;fontColor=#FEFAE0;" parent="EZFJRwTgaztwTsdIO9kQ-49" vertex="1">
          <mxGeometry x="30" width="110" height="30" as="geometry" />
        </mxCell>
        <mxCell id="EZFJRwTgaztwTsdIO9kQ-16" value="Objective" style="shape=table;startSize=30;container=1;collapsible=1;childLayout=tableLayout;fixedRows=1;rowLines=0;fontStyle=1;align=center;resizeLast=1;fillColor=#BC6C25;strokeColor=#DDA15E;fontColor=#FEFAE0;" parent="1" vertex="1">
          <mxGeometry x="550" y="300" width="180" height="190" as="geometry" />
        </mxCell>
        <mxCell id="EZFJRwTgaztwTsdIO9kQ-17" value="" style="shape=partialRectangle;collapsible=0;dropTarget=0;pointerEvents=0;fillColor=none;top=0;left=0;bottom=1;right=0;points=[[0,0.5],[1,0.5]];portConstraint=eastwest;strokeColor=#DDA15E;fontColor=#FEFAE0;" parent="EZFJRwTgaztwTsdIO9kQ-16" vertex="1">
          <mxGeometry y="30" width="180" height="30" as="geometry" />
        </mxCell>
        <mxCell id="EZFJRwTgaztwTsdIO9kQ-18" value="PK" style="shape=partialRectangle;connectable=0;fillColor=none;top=0;left=0;bottom=0;right=0;fontStyle=1;overflow=hidden;strokeColor=#DDA15E;fontColor=#FEFAE0;" parent="EZFJRwTgaztwTsdIO9kQ-17" vertex="1">
          <mxGeometry width="30" height="30" as="geometry" />
        </mxCell>
        <mxCell id="EZFJRwTgaztwTsdIO9kQ-19" value="id_objective" style="shape=partialRectangle;connectable=0;fillColor=none;top=0;left=0;bottom=0;right=0;align=left;spacingLeft=6;fontStyle=5;overflow=hidden;strokeColor=#DDA15E;fontColor=#FEFAE0;" parent="EZFJRwTgaztwTsdIO9kQ-17" vertex="1">
          <mxGeometry x="30" width="150" height="30" as="geometry" />
        </mxCell>
        <mxCell id="EZFJRwTgaztwTsdIO9kQ-59" value="" style="shape=partialRectangle;collapsible=0;dropTarget=0;pointerEvents=0;fillColor=none;top=0;left=0;bottom=0;right=0;points=[[0,0.5],[1,0.5]];portConstraint=eastwest;strokeColor=#DDA15E;fontColor=#FEFAE0;" parent="EZFJRwTgaztwTsdIO9kQ-16" vertex="1">
          <mxGeometry y="60" width="180" height="30" as="geometry" />
        </mxCell>
        <mxCell id="EZFJRwTgaztwTsdIO9kQ-60" value="FK1" style="shape=partialRectangle;connectable=0;fillColor=none;top=0;left=0;bottom=0;right=0;fontStyle=0;overflow=hidden;strokeColor=#DDA15E;fontColor=#FEFAE0;" parent="EZFJRwTgaztwTsdIO9kQ-59" vertex="1">
          <mxGeometry width="30" height="30" as="geometry" />
        </mxCell>
        <mxCell id="EZFJRwTgaztwTsdIO9kQ-61" value="id_product" style="shape=partialRectangle;connectable=0;fillColor=none;top=0;left=0;bottom=0;right=0;align=left;spacingLeft=6;fontStyle=0;overflow=hidden;strokeColor=#DDA15E;fontColor=#FEFAE0;" parent="EZFJRwTgaztwTsdIO9kQ-59" vertex="1">
          <mxGeometry x="30" width="150" height="30" as="geometry" />
        </mxCell>
        <mxCell id="EZFJRwTgaztwTsdIO9kQ-56" value="" style="shape=partialRectangle;collapsible=0;dropTarget=0;pointerEvents=0;fillColor=none;top=0;left=0;bottom=0;right=0;points=[[0,0.5],[1,0.5]];portConstraint=eastwest;strokeColor=#DDA15E;fontColor=#FEFAE0;" parent="EZFJRwTgaztwTsdIO9kQ-16" vertex="1">
          <mxGeometry y="90" width="180" height="30" as="geometry" />
        </mxCell>
        <mxCell id="EZFJRwTgaztwTsdIO9kQ-57" value="FK2" style="shape=partialRectangle;connectable=0;fillColor=none;top=0;left=0;bottom=0;right=0;fontStyle=0;overflow=hidden;strokeColor=#DDA15E;fontColor=#FEFAE0;" parent="EZFJRwTgaztwTsdIO9kQ-56" vertex="1">
          <mxGeometry width="30" height="30" as="geometry" />
        </mxCell>
        <mxCell id="EZFJRwTgaztwTsdIO9kQ-58" value="id_team" style="shape=partialRectangle;connectable=0;fillColor=none;top=0;left=0;bottom=0;right=0;align=left;spacingLeft=6;fontStyle=0;overflow=hidden;strokeColor=#DDA15E;fontColor=#FEFAE0;" parent="EZFJRwTgaztwTsdIO9kQ-56" vertex="1">
          <mxGeometry x="30" width="150" height="30" as="geometry" />
        </mxCell>
        <mxCell id="EZFJRwTgaztwTsdIO9kQ-23" value="" style="shape=partialRectangle;collapsible=0;dropTarget=0;pointerEvents=0;fillColor=none;top=0;left=0;bottom=0;right=0;points=[[0,0.5],[1,0.5]];portConstraint=eastwest;strokeColor=#DDA15E;fontColor=#FEFAE0;" parent="EZFJRwTgaztwTsdIO9kQ-16" vertex="1">
          <mxGeometry y="120" width="180" height="30" as="geometry" />
        </mxCell>
        <mxCell id="EZFJRwTgaztwTsdIO9kQ-24" value="" style="shape=partialRectangle;connectable=0;fillColor=none;top=0;left=0;bottom=0;right=0;editable=1;overflow=hidden;strokeColor=#DDA15E;fontColor=#FEFAE0;" parent="EZFJRwTgaztwTsdIO9kQ-23" vertex="1">
          <mxGeometry width="30" height="30" as="geometry" />
        </mxCell>
        <mxCell id="EZFJRwTgaztwTsdIO9kQ-25" value="objective_name" style="shape=partialRectangle;connectable=0;fillColor=none;top=0;left=0;bottom=0;right=0;align=left;spacingLeft=6;overflow=hidden;strokeColor=#DDA15E;fontColor=#FEFAE0;" parent="EZFJRwTgaztwTsdIO9kQ-23" vertex="1">
          <mxGeometry x="30" width="150" height="30" as="geometry" />
        </mxCell>
        <mxCell id="EZFJRwTgaztwTsdIO9kQ-78" value="" style="shape=partialRectangle;collapsible=0;dropTarget=0;pointerEvents=0;fillColor=none;top=0;left=0;bottom=0;right=0;points=[[0,0.5],[1,0.5]];portConstraint=eastwest;strokeColor=#DDA15E;fontColor=#FEFAE0;" parent="EZFJRwTgaztwTsdIO9kQ-16" vertex="1">
          <mxGeometry y="150" width="180" height="30" as="geometry" />
        </mxCell>
        <mxCell id="EZFJRwTgaztwTsdIO9kQ-79" value="" style="shape=partialRectangle;connectable=0;fillColor=none;top=0;left=0;bottom=0;right=0;editable=1;overflow=hidden;strokeColor=#DDA15E;fontColor=#FEFAE0;" parent="EZFJRwTgaztwTsdIO9kQ-78" vertex="1">
          <mxGeometry width="30" height="30" as="geometry" />
        </mxCell>
        <mxCell id="EZFJRwTgaztwTsdIO9kQ-80" value="" style="shape=partialRectangle;connectable=0;fillColor=none;top=0;left=0;bottom=0;right=0;align=left;spacingLeft=6;overflow=hidden;strokeColor=#DDA15E;fontColor=#FEFAE0;" parent="EZFJRwTgaztwTsdIO9kQ-78" vertex="1">
          <mxGeometry x="30" width="150" height="30" as="geometry" />
        </mxCell>
        <mxCell id="EZFJRwTgaztwTsdIO9kQ-29" value="Team" style="shape=table;startSize=30;container=1;collapsible=1;childLayout=tableLayout;fixedRows=1;rowLines=0;fontStyle=1;align=center;resizeLast=1;fillColor=#BC6C25;strokeColor=#DDA15E;fontColor=#FEFAE0;" parent="1" vertex="1">
          <mxGeometry x="560" y="60" width="180" height="120" as="geometry" />
        </mxCell>
        <mxCell id="EZFJRwTgaztwTsdIO9kQ-30" value="" style="shape=partialRectangle;collapsible=0;dropTarget=0;pointerEvents=0;fillColor=none;top=0;left=0;bottom=1;right=0;points=[[0,0.5],[1,0.5]];portConstraint=eastwest;strokeColor=#DDA15E;fontColor=#FEFAE0;" parent="EZFJRwTgaztwTsdIO9kQ-29" vertex="1">
          <mxGeometry y="30" width="180" height="30" as="geometry" />
        </mxCell>
        <mxCell id="EZFJRwTgaztwTsdIO9kQ-31" value="PK" style="shape=partialRectangle;connectable=0;fillColor=none;top=0;left=0;bottom=0;right=0;fontStyle=1;overflow=hidden;strokeColor=#DDA15E;fontColor=#FEFAE0;" parent="EZFJRwTgaztwTsdIO9kQ-30" vertex="1">
          <mxGeometry width="30" height="30" as="geometry" />
        </mxCell>
        <mxCell id="EZFJRwTgaztwTsdIO9kQ-32" value="id_team" style="shape=partialRectangle;connectable=0;fillColor=none;top=0;left=0;bottom=0;right=0;align=left;spacingLeft=6;fontStyle=5;overflow=hidden;strokeColor=#DDA15E;fontColor=#FEFAE0;" parent="EZFJRwTgaztwTsdIO9kQ-30" vertex="1">
          <mxGeometry x="30" width="150" height="30" as="geometry" />
        </mxCell>
        <mxCell id="EZFJRwTgaztwTsdIO9kQ-43" value="" style="shape=partialRectangle;collapsible=0;dropTarget=0;pointerEvents=0;fillColor=none;top=0;left=0;bottom=0;right=0;points=[[0,0.5],[1,0.5]];portConstraint=eastwest;strokeColor=#DDA15E;fontColor=#FEFAE0;" parent="EZFJRwTgaztwTsdIO9kQ-29" vertex="1">
          <mxGeometry y="60" width="180" height="30" as="geometry" />
        </mxCell>
        <mxCell id="EZFJRwTgaztwTsdIO9kQ-44" value="FK" style="shape=partialRectangle;connectable=0;fillColor=none;top=0;left=0;bottom=0;right=0;fontStyle=0;overflow=hidden;strokeColor=#DDA15E;fontColor=#FEFAE0;" parent="EZFJRwTgaztwTsdIO9kQ-43" vertex="1">
          <mxGeometry width="30" height="30" as="geometry" />
        </mxCell>
        <mxCell id="EZFJRwTgaztwTsdIO9kQ-45" value="id_product" style="shape=partialRectangle;connectable=0;fillColor=none;top=0;left=0;bottom=0;right=0;align=left;spacingLeft=6;fontStyle=0;overflow=hidden;strokeColor=#DDA15E;fontColor=#FEFAE0;" parent="EZFJRwTgaztwTsdIO9kQ-43" vertex="1">
          <mxGeometry x="30" width="150" height="30" as="geometry" />
        </mxCell>
        <mxCell id="EZFJRwTgaztwTsdIO9kQ-36" value="" style="shape=partialRectangle;collapsible=0;dropTarget=0;pointerEvents=0;fillColor=none;top=0;left=0;bottom=0;right=0;points=[[0,0.5],[1,0.5]];portConstraint=eastwest;strokeColor=#DDA15E;fontColor=#FEFAE0;" parent="EZFJRwTgaztwTsdIO9kQ-29" vertex="1">
          <mxGeometry y="90" width="180" height="30" as="geometry" />
        </mxCell>
        <mxCell id="EZFJRwTgaztwTsdIO9kQ-37" value="" style="shape=partialRectangle;connectable=0;fillColor=none;top=0;left=0;bottom=0;right=0;editable=1;overflow=hidden;strokeColor=#DDA15E;fontColor=#FEFAE0;" parent="EZFJRwTgaztwTsdIO9kQ-36" vertex="1">
          <mxGeometry width="30" height="30" as="geometry" />
        </mxCell>
        <mxCell id="EZFJRwTgaztwTsdIO9kQ-38" value="team_name" style="shape=partialRectangle;connectable=0;fillColor=none;top=0;left=0;bottom=0;right=0;align=left;spacingLeft=6;overflow=hidden;strokeColor=#DDA15E;fontColor=#FEFAE0;" parent="EZFJRwTgaztwTsdIO9kQ-36" vertex="1">
          <mxGeometry x="30" width="150" height="30" as="geometry" />
        </mxCell>
        <mxCell id="EZFJRwTgaztwTsdIO9kQ-65" value="" style="edgeStyle=entityRelationEdgeStyle;fontSize=12;html=1;endArrow=ERoneToMany;entryX=0;entryY=0.5;entryDx=0;entryDy=0;labelBackgroundColor=#283618;strokeColor=#DDA15E;fontColor=#FEFAE0;" parent="1" source="C-vyLk0tnHw3VtMMgP7b-3" target="EZFJRwTgaztwTsdIO9kQ-59" edge="1">
          <mxGeometry width="100" height="100" relative="1" as="geometry">
            <mxPoint x="310" y="290" as="sourcePoint" />
            <mxPoint x="520" y="250" as="targetPoint" />
          </mxGeometry>
        </mxCell>
        <mxCell id="EZFJRwTgaztwTsdIO9kQ-67" value="" style="edgeStyle=orthogonalEdgeStyle;fontSize=12;html=1;endArrow=ERoneToMany;entryX=1;entryY=0.5;entryDx=0;entryDy=0;exitX=1;exitY=0.5;exitDx=0;exitDy=0;labelBackgroundColor=#283618;strokeColor=#DDA15E;fontColor=#FEFAE0;" parent="1" source="EZFJRwTgaztwTsdIO9kQ-30" target="EZFJRwTgaztwTsdIO9kQ-56" edge="1">
          <mxGeometry width="100" height="100" relative="1" as="geometry">
            <mxPoint x="770" y="117" as="sourcePoint" />
            <mxPoint x="520" y="250" as="targetPoint" />
            <Array as="points">
              <mxPoint x="790" y="105" />
              <mxPoint x="790" y="405" />
            </Array>
          </mxGeometry>
        </mxCell>
        <mxCell id="EZFJRwTgaztwTsdIO9kQ-68" value="Keyresult" style="shape=table;startSize=30;container=1;collapsible=1;childLayout=tableLayout;fixedRows=1;rowLines=0;fontStyle=1;align=center;resizeLast=1;fillColor=#BC6C25;strokeColor=#DDA15E;fontColor=#FEFAE0;" parent="1" vertex="1">
          <mxGeometry x="150" y="330" width="180" height="130" as="geometry" />
        </mxCell>
        <mxCell id="EZFJRwTgaztwTsdIO9kQ-69" value="" style="shape=partialRectangle;collapsible=0;dropTarget=0;pointerEvents=0;fillColor=none;top=0;left=0;bottom=1;right=0;points=[[0,0.5],[1,0.5]];portConstraint=eastwest;strokeColor=#DDA15E;fontColor=#FEFAE0;" parent="EZFJRwTgaztwTsdIO9kQ-68" vertex="1">
          <mxGeometry y="30" width="180" height="30" as="geometry" />
        </mxCell>
        <mxCell id="EZFJRwTgaztwTsdIO9kQ-70" value="PK" style="shape=partialRectangle;connectable=0;fillColor=none;top=0;left=0;bottom=0;right=0;fontStyle=1;overflow=hidden;strokeColor=#DDA15E;fontColor=#FEFAE0;" parent="EZFJRwTgaztwTsdIO9kQ-69" vertex="1">
          <mxGeometry width="30" height="30" as="geometry" />
        </mxCell>
        <mxCell id="EZFJRwTgaztwTsdIO9kQ-71" value="id_keyresult" style="shape=partialRectangle;connectable=0;fillColor=none;top=0;left=0;bottom=0;right=0;align=left;spacingLeft=6;fontStyle=5;overflow=hidden;strokeColor=#DDA15E;fontColor=#FEFAE0;" parent="EZFJRwTgaztwTsdIO9kQ-69" vertex="1">
          <mxGeometry x="30" width="150" height="30" as="geometry" />
        </mxCell>
        <mxCell id="EZFJRwTgaztwTsdIO9kQ-81" value="" style="shape=partialRectangle;collapsible=0;dropTarget=0;pointerEvents=0;fillColor=none;top=0;left=0;bottom=0;right=0;points=[[0,0.5],[1,0.5]];portConstraint=eastwest;strokeColor=#DDA15E;fontColor=#FEFAE0;" parent="EZFJRwTgaztwTsdIO9kQ-68" vertex="1">
          <mxGeometry y="60" width="180" height="30" as="geometry" />
        </mxCell>
        <mxCell id="EZFJRwTgaztwTsdIO9kQ-82" value="FK" style="shape=partialRectangle;connectable=0;fillColor=none;top=0;left=0;bottom=0;right=0;fontStyle=0;overflow=hidden;strokeColor=#DDA15E;fontColor=#FEFAE0;" parent="EZFJRwTgaztwTsdIO9kQ-81" vertex="1">
          <mxGeometry width="30" height="30" as="geometry" />
        </mxCell>
        <mxCell id="EZFJRwTgaztwTsdIO9kQ-83" value="id_objective" style="shape=partialRectangle;connectable=0;fillColor=none;top=0;left=0;bottom=0;right=0;align=left;spacingLeft=6;fontStyle=0;overflow=hidden;strokeColor=#DDA15E;fontColor=#FEFAE0;" parent="EZFJRwTgaztwTsdIO9kQ-81" vertex="1">
          <mxGeometry x="30" width="150" height="30" as="geometry" />
        </mxCell>
        <mxCell id="EZFJRwTgaztwTsdIO9kQ-75" value="" style="shape=partialRectangle;collapsible=0;dropTarget=0;pointerEvents=0;fillColor=none;top=0;left=0;bottom=0;right=0;points=[[0,0.5],[1,0.5]];portConstraint=eastwest;strokeColor=#DDA15E;fontColor=#FEFAE0;" parent="EZFJRwTgaztwTsdIO9kQ-68" vertex="1">
          <mxGeometry y="90" width="180" height="30" as="geometry" />
        </mxCell>
        <mxCell id="EZFJRwTgaztwTsdIO9kQ-76" value="" style="shape=partialRectangle;connectable=0;fillColor=none;top=0;left=0;bottom=0;right=0;editable=1;overflow=hidden;strokeColor=#DDA15E;fontColor=#FEFAE0;" parent="EZFJRwTgaztwTsdIO9kQ-75" vertex="1">
          <mxGeometry width="30" height="30" as="geometry" />
        </mxCell>
        <mxCell id="EZFJRwTgaztwTsdIO9kQ-77" value="keyresult_name" style="shape=partialRectangle;connectable=0;fillColor=none;top=0;left=0;bottom=0;right=0;align=left;spacingLeft=6;overflow=hidden;strokeColor=#DDA15E;fontColor=#FEFAE0;" parent="EZFJRwTgaztwTsdIO9kQ-75" vertex="1">
          <mxGeometry x="30" width="150" height="30" as="geometry" />
        </mxCell>
        <mxCell id="EZFJRwTgaztwTsdIO9kQ-85" value="deadline" style="shape=table;startSize=30;container=1;collapsible=1;childLayout=tableLayout;fixedRows=1;rowLines=0;fontStyle=1;align=center;resizeLast=1;fillColor=#BC6C25;strokeColor=#DDA15E;fontColor=#FEFAE0;" parent="1" vertex="1">
          <mxGeometry x="500" y="570" width="180" height="160" as="geometry" />
        </mxCell>
        <mxCell id="EZFJRwTgaztwTsdIO9kQ-86" value="" style="shape=partialRectangle;collapsible=0;dropTarget=0;pointerEvents=0;fillColor=none;top=0;left=0;bottom=1;right=0;points=[[0,0.5],[1,0.5]];portConstraint=eastwest;strokeColor=#DDA15E;fontColor=#FEFAE0;" parent="EZFJRwTgaztwTsdIO9kQ-85" vertex="1">
          <mxGeometry y="30" width="180" height="30" as="geometry" />
        </mxCell>
        <mxCell id="EZFJRwTgaztwTsdIO9kQ-87" value="PK" style="shape=partialRectangle;connectable=0;fillColor=none;top=0;left=0;bottom=0;right=0;fontStyle=1;overflow=hidden;strokeColor=#DDA15E;fontColor=#FEFAE0;" parent="EZFJRwTgaztwTsdIO9kQ-86" vertex="1">
          <mxGeometry width="30" height="30" as="geometry" />
        </mxCell>
        <mxCell id="EZFJRwTgaztwTsdIO9kQ-88" value="deadline_id" style="shape=partialRectangle;connectable=0;fillColor=none;top=0;left=0;bottom=0;right=0;align=left;spacingLeft=6;fontStyle=5;overflow=hidden;strokeColor=#DDA15E;fontColor=#FEFAE0;" parent="EZFJRwTgaztwTsdIO9kQ-86" vertex="1">
          <mxGeometry x="30" width="150" height="30" as="geometry" />
        </mxCell>
        <mxCell id="EZFJRwTgaztwTsdIO9kQ-92" value="" style="shape=partialRectangle;collapsible=0;dropTarget=0;pointerEvents=0;fillColor=none;top=0;left=0;bottom=0;right=0;points=[[0,0.5],[1,0.5]];portConstraint=eastwest;strokeColor=#DDA15E;fontColor=#FEFAE0;" parent="EZFJRwTgaztwTsdIO9kQ-85" vertex="1">
          <mxGeometry y="60" width="180" height="30" as="geometry" />
        </mxCell>
        <mxCell id="EZFJRwTgaztwTsdIO9kQ-93" value="" style="shape=partialRectangle;connectable=0;fillColor=none;top=0;left=0;bottom=0;right=0;editable=1;overflow=hidden;strokeColor=#DDA15E;fontColor=#FEFAE0;" parent="EZFJRwTgaztwTsdIO9kQ-92" vertex="1">
          <mxGeometry width="30" height="30" as="geometry" />
        </mxCell>
        <mxCell id="EZFJRwTgaztwTsdIO9kQ-94" value="date" style="shape=partialRectangle;connectable=0;fillColor=none;top=0;left=0;bottom=0;right=0;align=left;spacingLeft=6;overflow=hidden;strokeColor=#DDA15E;fontColor=#FEFAE0;" parent="EZFJRwTgaztwTsdIO9kQ-92" vertex="1">
          <mxGeometry x="30" width="150" height="30" as="geometry" />
        </mxCell>
        <mxCell id="EZFJRwTgaztwTsdIO9kQ-98" value="" style="shape=partialRectangle;collapsible=0;dropTarget=0;pointerEvents=0;fillColor=none;top=0;left=0;bottom=0;right=0;points=[[0,0.5],[1,0.5]];portConstraint=eastwest;strokeColor=#DDA15E;fontColor=#FEFAE0;" parent="EZFJRwTgaztwTsdIO9kQ-85" vertex="1">
          <mxGeometry y="90" width="180" height="30" as="geometry" />
        </mxCell>
        <mxCell id="EZFJRwTgaztwTsdIO9kQ-99" value="FK1" style="shape=partialRectangle;connectable=0;fillColor=none;top=0;left=0;bottom=0;right=0;fontStyle=0;overflow=hidden;strokeColor=#DDA15E;fontColor=#FEFAE0;" parent="EZFJRwTgaztwTsdIO9kQ-98" vertex="1">
          <mxGeometry width="30" height="30" as="geometry" />
        </mxCell>
        <mxCell id="EZFJRwTgaztwTsdIO9kQ-100" value="id_objective" style="shape=partialRectangle;connectable=0;fillColor=none;top=0;left=0;bottom=0;right=0;align=left;spacingLeft=6;fontStyle=0;overflow=hidden;strokeColor=#DDA15E;fontColor=#FEFAE0;" parent="EZFJRwTgaztwTsdIO9kQ-98" vertex="1">
          <mxGeometry x="30" width="150" height="30" as="geometry" />
        </mxCell>
        <mxCell id="EZFJRwTgaztwTsdIO9kQ-101" value="" style="shape=partialRectangle;collapsible=0;dropTarget=0;pointerEvents=0;fillColor=none;top=0;left=0;bottom=0;right=0;points=[[0,0.5],[1,0.5]];portConstraint=eastwest;strokeColor=#DDA15E;fontColor=#FEFAE0;" parent="EZFJRwTgaztwTsdIO9kQ-85" vertex="1">
          <mxGeometry y="120" width="180" height="30" as="geometry" />
        </mxCell>
        <mxCell id="EZFJRwTgaztwTsdIO9kQ-102" value="FK2" style="shape=partialRectangle;connectable=0;fillColor=none;top=0;left=0;bottom=0;right=0;fontStyle=0;overflow=hidden;strokeColor=#DDA15E;fontColor=#FEFAE0;" parent="EZFJRwTgaztwTsdIO9kQ-101" vertex="1">
          <mxGeometry width="30" height="30" as="geometry" />
        </mxCell>
        <mxCell id="EZFJRwTgaztwTsdIO9kQ-103" value="id_keyresult" style="shape=partialRectangle;connectable=0;fillColor=none;top=0;left=0;bottom=0;right=0;align=left;spacingLeft=6;fontStyle=0;overflow=hidden;strokeColor=#DDA15E;fontColor=#FEFAE0;" parent="EZFJRwTgaztwTsdIO9kQ-101" vertex="1">
          <mxGeometry x="30" width="150" height="30" as="geometry" />
        </mxCell>
        <mxCell id="EZFJRwTgaztwTsdIO9kQ-104" value="" style="edgeStyle=orthogonalEdgeStyle;fontSize=12;html=1;endArrow=ERmandOne;startArrow=ERmandOne;entryX=0;entryY=0.5;entryDx=0;entryDy=0;exitX=1;exitY=0.5;exitDx=0;exitDy=0;labelBackgroundColor=#283618;strokeColor=#DDA15E;fontColor=#FEFAE0;" parent="1" source="EZFJRwTgaztwTsdIO9kQ-69" target="EZFJRwTgaztwTsdIO9kQ-101" edge="1">
          <mxGeometry width="100" height="100" relative="1" as="geometry">
            <mxPoint x="220" y="750" as="sourcePoint" />
            <mxPoint x="330" y="650" as="targetPoint" />
            <Array as="points">
              <mxPoint x="420" y="375" />
              <mxPoint x="420" y="705" />
            </Array>
          </mxGeometry>
        </mxCell>
        <mxCell id="EZFJRwTgaztwTsdIO9kQ-107" value="" style="edgeStyle=orthogonalEdgeStyle;fontSize=12;html=1;endArrow=ERmandOne;startArrow=ERmandOne;exitX=1;exitY=0.5;exitDx=0;exitDy=0;labelBackgroundColor=#283618;strokeColor=#DDA15E;fontColor=#FEFAE0;" parent="1" source="EZFJRwTgaztwTsdIO9kQ-17" target="EZFJRwTgaztwTsdIO9kQ-98" edge="1">
          <mxGeometry width="100" height="100" relative="1" as="geometry">
            <mxPoint x="230" y="690" as="sourcePoint" />
            <mxPoint x="330" y="590" as="targetPoint" />
            <Array as="points">
              <mxPoint x="760" y="345" />
              <mxPoint x="760" y="675" />
            </Array>
          </mxGeometry>
        </mxCell>
        <mxCell id="snfFHzLHj3h09UmN88GI-2" value="Task" style="shape=table;startSize=30;container=1;collapsible=1;childLayout=tableLayout;fixedRows=1;rowLines=0;fontStyle=1;align=center;resizeLast=1;fillColor=#BC6C25;strokeColor=#DDA15E;fontColor=#FEFAE0;" vertex="1" parent="1">
          <mxGeometry x="150" y="550" width="180" height="160" as="geometry" />
        </mxCell>
        <mxCell id="snfFHzLHj3h09UmN88GI-3" value="" style="shape=partialRectangle;collapsible=0;dropTarget=0;pointerEvents=0;fillColor=none;top=0;left=0;bottom=1;right=0;points=[[0,0.5],[1,0.5]];portConstraint=eastwest;strokeColor=#DDA15E;fontColor=#FEFAE0;" vertex="1" parent="snfFHzLHj3h09UmN88GI-2">
          <mxGeometry y="30" width="180" height="30" as="geometry" />
        </mxCell>
        <mxCell id="snfFHzLHj3h09UmN88GI-4" value="PK" style="shape=partialRectangle;connectable=0;fillColor=none;top=0;left=0;bottom=0;right=0;fontStyle=1;overflow=hidden;strokeColor=#DDA15E;fontColor=#FEFAE0;" vertex="1" parent="snfFHzLHj3h09UmN88GI-3">
          <mxGeometry width="30" height="30" as="geometry" />
        </mxCell>
        <mxCell id="snfFHzLHj3h09UmN88GI-5" value="id_task" style="shape=partialRectangle;connectable=0;fillColor=none;top=0;left=0;bottom=0;right=0;align=left;spacingLeft=6;fontStyle=5;overflow=hidden;strokeColor=#DDA15E;fontColor=#FEFAE0;" vertex="1" parent="snfFHzLHj3h09UmN88GI-3">
          <mxGeometry x="30" width="150" height="30" as="geometry" />
        </mxCell>
        <mxCell id="snfFHzLHj3h09UmN88GI-15" value="" style="shape=partialRectangle;collapsible=0;dropTarget=0;pointerEvents=0;fillColor=none;top=0;left=0;bottom=0;right=0;points=[[0,0.5],[1,0.5]];portConstraint=eastwest;strokeColor=#DDA15E;fontColor=#FEFAE0;" vertex="1" parent="snfFHzLHj3h09UmN88GI-2">
          <mxGeometry y="60" width="180" height="30" as="geometry" />
        </mxCell>
        <mxCell id="snfFHzLHj3h09UmN88GI-16" value="FK1" style="shape=partialRectangle;connectable=0;fillColor=none;top=0;left=0;bottom=0;right=0;fontStyle=0;overflow=hidden;strokeColor=#DDA15E;fontColor=#FEFAE0;" vertex="1" parent="snfFHzLHj3h09UmN88GI-15">
          <mxGeometry width="30" height="30" as="geometry" />
        </mxCell>
        <mxCell id="snfFHzLHj3h09UmN88GI-17" value="id_keyresult" style="shape=partialRectangle;connectable=0;fillColor=none;top=0;left=0;bottom=0;right=0;align=left;spacingLeft=6;fontStyle=0;overflow=hidden;strokeColor=#DDA15E;fontColor=#FEFAE0;" vertex="1" parent="snfFHzLHj3h09UmN88GI-15">
          <mxGeometry x="30" width="150" height="30" as="geometry" />
        </mxCell>
        <mxCell id="snfFHzLHj3h09UmN88GI-19" value="" style="shape=partialRectangle;collapsible=0;dropTarget=0;pointerEvents=0;fillColor=none;top=0;left=0;bottom=0;right=0;points=[[0,0.5],[1,0.5]];portConstraint=eastwest;strokeColor=#DDA15E;fontColor=#FEFAE0;" vertex="1" parent="snfFHzLHj3h09UmN88GI-2">
          <mxGeometry y="90" width="180" height="30" as="geometry" />
        </mxCell>
        <mxCell id="snfFHzLHj3h09UmN88GI-20" value="FK2" style="shape=partialRectangle;connectable=0;fillColor=none;top=0;left=0;bottom=0;right=0;fontStyle=0;overflow=hidden;strokeColor=#DDA15E;fontColor=#FEFAE0;" vertex="1" parent="snfFHzLHj3h09UmN88GI-19">
          <mxGeometry width="30" height="30" as="geometry" />
        </mxCell>
        <mxCell id="snfFHzLHj3h09UmN88GI-21" value="id_objective" style="shape=partialRectangle;connectable=0;fillColor=none;top=0;left=0;bottom=0;right=0;align=left;spacingLeft=6;fontStyle=0;overflow=hidden;strokeColor=#DDA15E;fontColor=#FEFAE0;" vertex="1" parent="snfFHzLHj3h09UmN88GI-19">
          <mxGeometry x="30" width="150" height="30" as="geometry" />
        </mxCell>
        <mxCell id="snfFHzLHj3h09UmN88GI-6" value="" style="shape=partialRectangle;collapsible=0;dropTarget=0;pointerEvents=0;fillColor=none;top=0;left=0;bottom=0;right=0;points=[[0,0.5],[1,0.5]];portConstraint=eastwest;strokeColor=#DDA15E;fontColor=#FEFAE0;" vertex="1" parent="snfFHzLHj3h09UmN88GI-2">
          <mxGeometry y="120" width="180" height="30" as="geometry" />
        </mxCell>
        <mxCell id="snfFHzLHj3h09UmN88GI-7" value="" style="shape=partialRectangle;connectable=0;fillColor=none;top=0;left=0;bottom=0;right=0;editable=1;overflow=hidden;strokeColor=#DDA15E;fontColor=#FEFAE0;" vertex="1" parent="snfFHzLHj3h09UmN88GI-6">
          <mxGeometry width="30" height="30" as="geometry" />
        </mxCell>
        <mxCell id="snfFHzLHj3h09UmN88GI-8" value="task_name" style="shape=partialRectangle;connectable=0;fillColor=none;top=0;left=0;bottom=0;right=0;align=left;spacingLeft=6;overflow=hidden;strokeColor=#DDA15E;fontColor=#FEFAE0;" vertex="1" parent="snfFHzLHj3h09UmN88GI-6">
          <mxGeometry x="30" width="150" height="30" as="geometry" />
        </mxCell>
        <mxCell id="snfFHzLHj3h09UmN88GI-22" value="" style="fontSize=12;html=1;endArrow=ERoneToMany;entryX=0;entryY=0.5;entryDx=0;entryDy=0;exitX=0;exitY=0.5;exitDx=0;exitDy=0;edgeStyle=orthogonalEdgeStyle;labelBackgroundColor=#283618;strokeColor=#DDA15E;fontColor=#FEFAE0;" edge="1" parent="1" source="EZFJRwTgaztwTsdIO9kQ-69" target="snfFHzLHj3h09UmN88GI-15">
          <mxGeometry width="100" height="100" relative="1" as="geometry">
            <mxPoint x="10" y="620" as="sourcePoint" />
            <mxPoint x="110" y="520" as="targetPoint" />
            <Array as="points">
              <mxPoint x="80" y="375" />
              <mxPoint x="80" y="625" />
            </Array>
          </mxGeometry>
        </mxCell>
        <mxCell id="snfFHzLHj3h09UmN88GI-23" value="" style="edgeStyle=entityRelationEdgeStyle;fontSize=12;html=1;endArrow=ERoneToMany;entryX=1;entryY=0.5;entryDx=0;entryDy=0;exitX=0;exitY=0.5;exitDx=0;exitDy=0;labelBackgroundColor=#283618;strokeColor=#DDA15E;fontColor=#FEFAE0;" edge="1" parent="1" source="EZFJRwTgaztwTsdIO9kQ-17" target="snfFHzLHj3h09UmN88GI-19">
          <mxGeometry width="100" height="100" relative="1" as="geometry">
            <mxPoint x="460" y="410" as="sourcePoint" />
            <mxPoint x="490" y="410" as="targetPoint" />
          </mxGeometry>
        </mxCell>
        <mxCell id="snfFHzLHj3h09UmN88GI-24" value="" style="edgeStyle=entityRelationEdgeStyle;fontSize=12;html=1;endArrow=ERoneToMany;entryX=1;entryY=0.5;entryDx=0;entryDy=0;exitX=0;exitY=0.5;exitDx=0;exitDy=0;labelBackgroundColor=#283618;strokeColor=#DDA15E;fontColor=#FEFAE0;" edge="1" parent="1" source="EZFJRwTgaztwTsdIO9kQ-17" target="EZFJRwTgaztwTsdIO9kQ-81">
          <mxGeometry width="100" height="100" relative="1" as="geometry">
            <mxPoint x="290" y="600" as="sourcePoint" />
            <mxPoint x="390" y="500" as="targetPoint" />
          </mxGeometry>
        </mxCell>
      </root>
    </mxGraphModel>
  </diagram>
</mxfile>
